<svg width="122" height="30" viewBox="0 0 122 30" fill="none" xmlns="http://www.w3.org/2000/svg">
<path d="M3.464 18.432C4.688 19.272 5.972 20.112 7.316 20.952C8.684 21.792 10.016 22.596 11.312 23.364V23.616L10.988 24.984L10.844 25.128C9.188 23.904 7.496 22.74 5.768 21.636C4.04 20.508 2.312 19.44 0.584 18.432V18.252C2.312 17.244 4.04 16.188 5.768 15.084C7.496 13.956 9.188 12.78 10.844 11.556L10.988 11.7L11.312 13.068V13.32C10.016 14.064 8.684 14.868 7.316 15.732C5.972 16.572 4.688 17.412 3.464 18.252V18.432ZM15.3463 28.908C16.1383 27.3 16.9063 25.536 17.6503 23.616C18.3943 21.696 19.0903 19.836 19.7383 18.036L22.1503 11.412C22.3663 10.812 22.6183 10.116 22.9062 9.324C23.1943 8.532 23.4703 7.716 23.7343 6.876C24.0223 6.012 24.2863 5.148 24.5263 4.284C24.7903 3.42 25.0063 2.616 25.1743 1.872L25.2823 1.728H28.0903L28.1263 1.872C27.7183 2.616 27.3343 3.42 26.9743 4.284C26.6143 5.148 26.2663 6.012 25.9303 6.876C25.5943 7.716 25.2823 8.532 24.9943 9.324C24.7063 10.116 24.4543 10.812 24.2383 11.412L21.7903 18.036C21.1183 19.836 20.4583 21.696 19.8103 23.616C19.1623 25.536 18.6463 27.3 18.2623 28.908L18.1543 29.052H15.3463V28.908ZM43.9384 14.292L43.7944 14.184C43.7944 13.632 43.6264 13.188 43.2904 12.852C42.9784 12.492 42.5944 12.216 42.1384 12.024C41.6824 11.832 41.1904 11.7 40.6624 11.628C40.1584 11.556 39.7144 11.52 39.3304 11.52C38.2264 11.52 37.2664 11.724 36.4504 12.132C35.6584 12.516 34.9984 13.044 34.4704 13.716C33.9424 14.364 33.5464 15.12 33.2824 15.984C33.0424 16.824 32.9224 17.688 32.9224 18.576C32.9224 19.488 33.0544 20.364 33.3184 21.204C33.6064 22.044 34.0384 22.788 34.6144 23.436C35.1904 24.084 35.9104 24.6 36.7744 24.984C37.6384 25.368 38.6704 25.56 39.8704 25.56C40.6864 25.56 41.5864 25.44 42.5704 25.2C43.5784 24.936 44.4424 24.612 45.1624 24.228L45.5224 24.588L44.9824 25.596C44.7184 25.788 44.3704 25.992 43.9384 26.208C43.5304 26.4 43.0624 26.592 42.5344 26.784C42.0064 26.952 41.4304 27.096 40.8064 27.216C40.2064 27.336 39.6064 27.396 39.0064 27.396C37.8304 27.396 36.7024 27.192 35.6224 26.784C34.5664 26.352 33.6304 25.764 32.8144 25.02C32.0224 24.252 31.3864 23.34 30.9064 22.284C30.4264 21.204 30.1864 20.016 30.1864 18.72C30.1864 17.4 30.4264 16.2 30.9064 15.12C31.3864 14.04 32.0464 13.116 32.8864 12.348C33.7264 11.58 34.6984 10.98 35.8024 10.548C36.9304 10.116 38.1304 9.9 39.4024 9.9C40.5544 9.9 41.6344 10.044 42.6424 10.332C43.6744 10.62 44.4544 10.908 44.9824 11.196L45.0904 11.52L44.6944 14.292H43.9384ZM57.1127 9.9C58.5287 9.9 59.7887 10.152 60.8927 10.656C61.9967 11.136 62.9207 11.796 63.6647 12.636C64.4327 13.452 65.0087 14.4 65.3927 15.48C65.8007 16.56 66.0047 17.676 66.0047 18.828C66.0047 19.932 65.8247 21 65.4647 22.032C65.1047 23.064 64.5527 23.976 63.8087 24.768C63.0647 25.56 62.1407 26.196 61.0367 26.676C59.9327 27.156 58.6487 27.396 57.1847 27.396C55.6727 27.396 54.3527 27.144 53.2247 26.64C52.0967 26.136 51.1607 25.476 50.4167 24.66C49.6967 23.844 49.1567 22.92 48.7967 21.888C48.4367 20.832 48.2567 19.752 48.2567 18.648C48.2567 17.472 48.4607 16.356 48.8687 15.3C49.2767 14.244 49.8527 13.32 50.5967 12.528C51.3647 11.712 52.2887 11.076 53.3687 10.62C54.4727 10.14 55.7207 9.9 57.1127 9.9ZM57.1487 25.992C58.1567 25.992 59.0447 25.788 59.8127 25.38C60.5807 24.972 61.2167 24.432 61.7207 23.76C62.2247 23.088 62.5967 22.332 62.8367 21.492C63.1007 20.628 63.2327 19.74 63.2327 18.828C63.2327 17.964 63.0887 17.088 62.8007 16.2C62.5367 15.312 62.1407 14.52 61.6127 13.824C61.0847 13.104 60.4367 12.528 59.6687 12.096C58.9007 11.64 58.0127 11.412 57.0047 11.412C55.9487 11.412 55.0367 11.628 54.2687 12.06C53.5247 12.468 52.9007 13.008 52.3967 13.68C51.9167 14.352 51.5567 15.12 51.3167 15.984C51.0767 16.848 50.9567 17.712 50.9567 18.576C50.9567 19.464 51.0887 20.352 51.3527 21.24C51.6407 22.104 52.0487 22.896 52.5767 23.616C53.1047 24.312 53.7527 24.888 54.5207 25.344C55.2887 25.776 56.1647 25.992 57.1487 25.992ZM82.745 26.748C82.817 26.484 82.877 26.088 82.925 25.56C82.997 25.032 83.057 24.564 83.105 24.156L83.069 24.012C82.397 25.02 81.569 25.836 80.585 26.46C79.601 27.084 78.473 27.396 77.201 27.396C75.833 27.396 74.645 27.156 73.637 26.676C72.653 26.196 71.837 25.56 71.189 24.768C70.565 23.976 70.097 23.076 69.785 22.068C69.473 21.036 69.317 19.968 69.317 18.864C69.317 17.232 69.569 15.852 70.073 14.724C70.577 13.572 71.213 12.648 71.981 11.952C72.749 11.232 73.589 10.716 74.501 10.404C75.437 10.068 76.325 9.9 77.165 9.9C78.317 9.9 79.421 10.164 80.477 10.692C81.533 11.196 82.433 12.06 83.177 13.284L83.249 13.14C83.201 12.588 83.177 12.06 83.177 11.556C83.177 11.028 83.177 10.488 83.177 9.936C83.177 8.952 83.177 8.124 83.177 7.452C83.177 6.756 83.165 6.156 83.141 5.652C83.141 5.148 83.129 4.704 83.105 4.32C83.105 3.936 83.093 3.552 83.069 3.168C83.045 2.904 82.973 2.676 82.853 2.484C82.757 2.292 82.673 2.148 82.601 2.052C82.361 1.788 82.061 1.62 81.701 1.548C81.341 1.476 80.969 1.44 80.585 1.44L80.441 1.296V0.827998L80.585 0.684H81.233C81.641 0.684 82.157 0.684 82.781 0.684C83.405 0.659999 83.945 0.611999 84.401 0.539999L85.661 0.36L85.877 0.684C85.829 0.779999 85.781 0.959998 85.733 1.224C85.709 1.464 85.685 1.728 85.661 2.016C85.661 2.304 85.649 2.58 85.625 2.844C85.625 3.108 85.625 3.312 85.625 3.456C85.625 3.84 85.613 4.2 85.589 4.536C85.589 4.872 85.589 5.268 85.589 5.724C85.589 6.18 85.577 6.732 85.553 7.38C85.553 8.028 85.553 8.856 85.553 9.864V17.712C85.553 18.72 85.553 19.548 85.553 20.196C85.577 20.844 85.589 21.396 85.589 21.852C85.613 22.308 85.625 22.704 85.625 23.04C85.649 23.376 85.673 23.76 85.697 24.192C85.745 24.744 85.805 25.152 85.877 25.416C85.949 25.656 86.057 25.836 86.201 25.956C86.417 26.148 86.705 26.268 87.065 26.316C87.425 26.34 87.797 26.352 88.181 26.352L88.325 26.496L88.397 27L88.325 27.144C87.893 27.096 87.425 27.06 86.921 27.036C86.441 27.012 85.949 27 85.445 27C84.557 27 83.741 27.036 82.997 27.108L82.745 26.748ZM72.053 18.792C72.053 19.608 72.161 20.412 72.377 21.204C72.593 21.996 72.917 22.704 73.349 23.328C73.781 23.928 74.333 24.42 75.005 24.804C75.677 25.164 76.481 25.344 77.417 25.344C78.305 25.344 79.097 25.176 79.793 24.84C80.513 24.504 81.113 24.096 81.593 23.616C82.073 23.136 82.445 22.632 82.709 22.104C82.997 21.576 83.153 21.12 83.177 20.736V16.74C83.129 16.356 82.973 15.888 82.709 15.336C82.469 14.784 82.109 14.256 81.629 13.752C81.173 13.224 80.597 12.78 79.901 12.42C79.229 12.06 78.425 11.88 77.489 11.88C76.529 11.88 75.701 12.084 75.005 12.492C74.333 12.876 73.769 13.392 73.313 14.04C72.881 14.688 72.557 15.432 72.341 16.272C72.149 17.088 72.053 17.928 72.053 18.792ZM106.456 17.316L105.88 17.568C104.584 17.568 103.252 17.58 101.884 17.604C100.516 17.628 99.1718 17.64 97.8518 17.64H93.6038C93.5798 17.808 93.5678 17.976 93.5678 18.144C93.5678 18.288 93.5678 18.432 93.5678 18.576C93.5678 19.488 93.6998 20.364 93.9638 21.204C94.2278 22.02 94.6358 22.74 95.1878 23.364C95.7638 23.988 96.4958 24.492 97.3838 24.876C98.2718 25.236 99.3518 25.416 100.624 25.416C101.368 25.416 102.16 25.344 103 25.2C103.864 25.032 104.656 24.744 105.376 24.336L105.736 24.552V25.2L105.376 25.596C104.8 26.052 103.984 26.472 102.928 26.856C101.872 27.216 100.696 27.396 99.3998 27.396C98.1278 27.396 96.9638 27.192 95.9078 26.784C94.8758 26.352 93.9758 25.752 93.2078 24.984C92.4638 24.216 91.8758 23.304 91.4438 22.248C91.0358 21.192 90.8318 20.016 90.8318 18.72C90.8318 17.4 91.0478 16.2 91.4798 15.12C91.9118 14.04 92.4998 13.116 93.2438 12.348C94.0118 11.58 94.8998 10.98 95.9078 10.548C96.9398 10.116 98.0438 9.9 99.2198 9.9C99.8438 9.9 100.54 9.984 101.308 10.152C102.1 10.32 102.856 10.644 103.576 11.124C104.296 11.58 104.944 12.24 105.52 13.104C106.096 13.944 106.492 15.06 106.708 16.452L106.456 17.316ZM99.2558 11.52C98.4878 11.52 97.7918 11.652 97.1678 11.916C96.5678 12.156 96.0278 12.492 95.5478 12.924C95.0918 13.332 94.7078 13.824 94.3958 14.4C94.1078 14.952 93.9038 15.54 93.7838 16.164H95.1878C96.4838 16.164 97.7438 16.152 98.9678 16.128C100.192 16.08 101.476 16.02 102.82 15.948C103.132 15.924 103.336 15.84 103.432 15.696C103.552 15.552 103.612 15.384 103.612 15.192C103.612 15.048 103.6 14.916 103.576 14.796C103.552 14.676 103.516 14.556 103.468 14.436C103.204 13.524 102.712 12.816 101.992 12.312C101.272 11.784 100.36 11.52 99.2558 11.52ZM118.53 18.252C117.306 17.412 116.01 16.572 114.642 15.732C113.298 14.868 111.978 14.064 110.682 13.32V13.068L111.006 11.7L111.15 11.556C112.806 12.78 114.498 13.956 116.226 15.084C117.954 16.188 119.682 17.244 121.41 18.252V18.432C119.682 19.44 117.954 20.508 116.226 21.636C114.498 22.74 112.806 23.904 111.15 25.128L111.006 24.984L110.682 23.616V23.364C111.978 22.596 113.298 21.792 114.642 20.952C116.01 20.112 117.306 19.272 118.53 18.432V18.252Z" fill="black"/>
</svg>
